<svg width="26" height="26" viewBox="0 0 26 26" fill="none" xmlns="http://www.w3.org/2000/svg">
<path d="M7.55081 14.7781C9.32399 14.7781 10.745 16.213 10.745 17.9988V22.2859C10.745 24.059 9.32399 25.5053 7.55081 25.5053H3.3002C1.53959 25.5053 0.105957 24.059 0.105957 22.2859V17.9988C0.105957 16.213 1.53959 14.7781 3.3002 14.7781H7.55081ZM22.0634 14.7781C23.824 14.7781 25.2576 16.213 25.2576 17.9988V22.2859C25.2576 24.059 23.824 25.5053 22.0634 25.5053H17.8127C16.0396 25.5053 14.6185 24.059 14.6185 22.2859V17.9988C14.6185 16.213 16.0396 14.7781 17.8127 14.7781H22.0634ZM7.55081 0.354126C9.32399 0.354126 10.745 1.80034 10.745 3.57478V7.86185C10.745 9.64761 9.32399 11.0812 7.55081 11.0812H3.3002C1.53959 11.0812 0.105957 9.64761 0.105957 7.86185V3.57478C0.105957 1.80034 1.53959 0.354126 3.3002 0.354126H7.55081ZM22.0634 0.354126C23.824 0.354126 25.2576 1.80034 25.2576 3.57478V7.86185C25.2576 9.64761 23.824 11.0812 22.0634 11.0812H17.8127C16.0396 11.0812 14.6185 9.64761 14.6185 7.86185V3.57478C14.6185 1.80034 16.0396 0.354126 17.8127 0.354126H22.0634Z" fill=""/>
</svg>
