<?xml version="1.0" encoding="utf-8"?>
<!-- Svg Vector Icons : http://www.onlinewebfonts.com/icon -->
<!DOCTYPE svg PUBLIC "-//W3C//DTD SVG 1.1//EN" "http://www.w3.org/Graphics/SVG/1.1/DTD/svg11.dtd">
<svg version="1.1" xmlns="http://www.w3.org/2000/svg" xmlns:xlink="http://www.w3.org/1999/xlink" x="0px" y="0px" viewBox="0 0 256 256" enable-background="new 0 0 256 256" xml:space="preserve">
<metadata> Svg Vector Icons : http://www.onlinewebfonts.com/icon </metadata>
<g><g><path fill="#000000" d="M168.3,39.4l24.6-24.6c6.3-6.4,16.3-6.6,22.4-0.6l26.4,26.4c6,6,5.8,16-0.6,22.4l-24.5,24.6 M156.2,51.5l-96.6,96.6c-11.5,11.5-2.7,21.5,0,24.2l24.1,24.2c2.7,2.6,11.9,11.9,24.2,0l96.6-96.6L156.2,51.5z M74,224.8l-56.6,20.7l-1.1,0.4c-1.7,0.4-3.6,0-4.9-1.3c-1.3-1.3-1.7-3.2-1.3-4.9l0.4-1l20.7-56.6l0.4-1.1c0.2-0.6,0.6-1.1,1.1-1.5c2.1-2.1,5.5-2.2,7.5-0.2l36.6,36.6c2,2,1.9,5.3-0.2,7.5c-0.5,0.5-1,0.8-1.5,1.1L74,224.8z"/></g></g>
</svg>